# xmcd
#
# Track frame offsets: 
#        150
#        10157
#        21887
#        33272
#        42520
#        53067
#        64892
#        74232
#        85645
#        94940
#        105442
#        118980
#        128277
#        137475
#        149752
#        158360
#        170690
#        181482
#        191722
#        202972
#        213695
#        223025
#        234690
#        246307
#        258027
#        268622
#        279335
#        289932
#        300950
#
# Disc length: 4173 seconds
#
# Revision: 0
# Processed by: cddbd v1.5.1PL0 Copyright (c) Steve Scherf et al.
# Submitted via: ExactAudioCopy v0.95a4
#
DISCID=ae104b1d
DTITLE=Hank Locklin - Please Help Me I'm Falling - Disc 2
DYEAR=1900
DGENRE=Country
TTITLE0=Blue Hawaii (1958)
TTITLE1=Mademoiselle (1958)
TTITLE2=Anna Marie (1958)
TTITLE3=Foreign Love Affair (1958)
TTITLE4=The First Time (1963)
TTITLE5=It's A Little More Like Heaven (1958)
TTITLE6=Simple Things (1963)
TTITLE7=I Gotta Talk To Your Heart (1958)
TTITLE8=The Other Side Of The Door (1958)
TTITLE9=Paper Face (1963)
TTITLE10=The Upper Room (1958)
TTITLE11=That Inner Glow (1958)
TTITLE12=Foreign Car (1959)
TTITLE13=When The Band Plays The Blues (1959)
TTITLE14=Border Of The Blues (1959)
TTITLE15=Hiding In My Heart (1959)
TTITLE16=Blues In Advance (1959)
TTITLE17=Seven Days (The Humming Song) (1959)
TTITLE18=Second Fiddle (1963)
TTITLE19=Please Help Me I'm Falling (1960)
TTITLE20=My Old Hometown (1960)
TTITLE21=One Step Ahead Of My Past (1960)
TTITLE22=Toujours Moi (Always Me) (1960)
TTITLE23=You Only Want Me When You're Lonely (1963)
TTITLE24=The Same Sweet Girl (1963)
TTITLE25=Oh How I Miss You (Since You Went Away) (1961)
TTITLE26=Let Me Be The One (1961)
TTITLE27=From Here To There To You (1961)
TTITLE28=This Song Is Just For You (1961)
EXTD=
EXTT0=
EXTT1=
EXTT2=
EXTT3=
EXTT4=
EXTT5=
EXTT6=
EXTT7=
EXTT8=
EXTT9=
EXTT10=
EXTT11=
EXTT12=
EXTT13=
EXTT14=
EXTT15=
EXTT16=
EXTT17=
EXTT18=
EXTT19=
EXTT20=
EXTT21=
EXTT22=
EXTT23=
EXTT24=
EXTT25=
EXTT26=
EXTT27=
EXTT28=
PLAYORDER=
